<svg width="32" height="42" viewBox="0 0 32 42" fill="none" xmlns="http://www.w3.org/2000/svg">
<path d="M29.7999 8.39828C32.0219 12.9623 31.5177 18.3348 29.0574 22.701C27.0389 26.2833 24.0267 29.246 21.5444 32.5255C20.4096 34.027 19.2637 35.588 18.4846 37.2978C18.2261 37.8665 18.0024 38.4493 17.7824 39.0338C17.5606 39.6165 17.3717 40.2115 17.1591 40.7978C16.9592 41.3473 16.7264 41.9948 16.0096 42H15.9967C15.1424 41.9983 14.9352 41.0725 14.7226 40.4478C14.2019 38.9183 13.6574 37.45 12.8544 36.029C11.9194 34.377 10.7552 32.8493 9.57273 31.3548L29.7999 8.39828ZM9.66623 13.4838L2.40806 21.721C3.7354 24.416 5.74656 26.7313 7.67156 29.036C8.1244 29.5785 8.57723 30.1245 9.02273 30.674L18.1601 20.3053L18.1069 20.3228C14.9151 21.3745 11.3401 19.8135 10.0549 16.8455C9.8791 16.4426 9.75059 16.0224 9.67173 15.5925C9.55623 14.8278 9.53056 14.2608 9.6644 13.496L9.66623 13.4838ZM4.06906 5.51078L4.06356 5.51778C0.494063 9.83328 -0.11827 15.8078 2.01573 20.8653L10.7882 10.9095L10.6819 10.822L4.06906 5.51078ZM20.8789 0.763028L13.8426 8.74828C13.8588 8.74168 13.8753 8.73584 13.8921 8.73078C16.8254 7.76653 20.1309 8.99328 21.6287 11.5763C21.9514 12.1345 22.2209 12.7715 22.3199 13.405C22.4446 14.1855 22.4757 14.7578 22.3419 15.54L22.3364 15.568L29.3691 7.58628C27.5312 4.38666 24.51 1.95578 20.8954 0.768278L20.8789 0.763028ZM11.3547 10.269L19.9641 0.498778L19.8779 0.477778C18.6039 0.158133 17.292 -0.00245614 15.9747 2.83917e-05C13.8418 0.0190977 11.7361 0.458944 9.78981 1.29194C7.84351 2.12494 6.09867 3.3331 4.6649 4.84053L4.63556 4.87203L11.3547 10.269Z" fill="black"/>
</svg>
