<svg width="26" height="25" viewBox="0 0 26 25" fill="none" xmlns="http://www.w3.org/2000/svg">
<path d="M14.0708 0C15.4983 0.00375 16.2229 0.01125 16.8485 0.02875L17.0947 0.0375C17.3789 0.0475 17.6593 0.0599999 17.9981 0.0749999C19.3483 0.1375 20.2695 0.3475 21.0779 0.65625C21.9154 0.97375 22.6209 1.40375 23.3264 2.0975C23.9717 2.72237 24.4709 3.47824 24.7895 4.3125C25.1029 5.10875 25.3161 6.01625 25.3796 7.3475C25.3948 7.68 25.4075 7.95625 25.4176 8.2375L25.4252 8.48C25.4443 9.095 25.4519 9.80875 25.4544 11.215L25.4557 12.1475V13.785C25.4588 14.6968 25.4491 15.6085 25.4265 16.52L25.4189 16.7625C25.4087 17.0437 25.3961 17.32 25.3808 17.6525C25.3174 18.9837 25.1017 19.89 24.7895 20.6875C24.4719 21.5222 23.9725 22.2783 23.3264 22.9025C22.6919 23.5379 21.9246 24.0297 21.0779 24.3438C20.2695 24.6525 19.3483 24.8625 17.9981 24.925C17.697 24.939 17.3959 24.9515 17.0947 24.9625L16.8485 24.97C16.2229 24.9875 15.4983 24.9963 14.0708 24.9988L13.1241 25H11.4631C10.5371 25.0031 9.61111 24.9936 8.68539 24.9712L8.43921 24.9638C8.13798 24.9525 7.83681 24.9396 7.53573 24.925C6.18558 24.8625 5.26433 24.6525 4.45474 24.3438C3.60794 24.0305 2.84093 23.5386 2.20745 22.9025C1.56162 22.2779 1.06189 21.5219 0.743097 20.6875C0.429669 19.8912 0.216487 18.9837 0.15304 17.6525C0.138903 17.3559 0.126213 17.0592 0.114972 16.7625L0.108628 16.52C0.0852437 15.6085 0.0746681 14.6968 0.0769041 13.785V11.215C0.0733625 10.3033 0.082669 9.3915 0.104821 8.48L0.113703 8.2375C0.123855 7.95625 0.136544 7.68 0.151771 7.3475C0.215218 6.01625 0.4284 5.11 0.741828 4.3125C1.06048 3.47738 1.56121 2.72128 2.20872 2.0975C2.84204 1.46184 3.60854 0.969984 4.45474 0.65625C5.26433 0.3475 6.18431 0.1375 7.53573 0.0749999C7.87327 0.0599999 8.15497 0.0475 8.43921 0.0375L8.68539 0.0299999C9.61069 0.00779088 10.5363 -0.00179337 11.4618 0.00124991L14.0708 0ZM12.7663 6.25C11.0836 6.25 9.46978 6.90848 8.27992 8.08058C7.09006 9.25269 6.4216 10.8424 6.4216 12.5C6.4216 14.1576 7.09006 15.7473 8.27992 16.9194C9.46978 18.0915 11.0836 18.75 12.7663 18.75C14.449 18.75 16.0628 18.0915 17.2527 16.9194C18.4425 15.7473 19.111 14.1576 19.111 12.5C19.111 10.8424 18.4425 9.25269 17.2527 8.08058C16.0628 6.90848 14.449 6.25 12.7663 6.25ZM12.7663 8.75C13.2662 8.74992 13.7613 8.84683 14.2232 9.03521C14.685 9.22359 15.1048 9.49975 15.4583 9.84791C15.8119 10.1961 16.0923 10.6094 16.2837 11.0644C16.4751 11.5193 16.5737 12.0069 16.5738 12.4994C16.5738 12.9918 16.4755 13.4795 16.2842 13.9345C16.093 14.3895 15.8126 14.8029 15.4592 15.1512C15.1058 15.4995 14.6862 15.7758 14.2243 15.9643C13.7625 16.1528 13.2675 16.2499 12.7676 16.25C11.7579 16.25 10.7897 15.8549 10.0757 15.1517C9.36182 14.4484 8.96075 13.4946 8.96075 12.5C8.96075 11.5054 9.36182 10.5516 10.0757 9.84835C10.7897 9.14509 11.7579 8.75 12.7676 8.75M19.4295 4.375C19.0088 4.375 18.6054 4.53962 18.3079 4.83265C18.0104 5.12567 17.8433 5.5231 17.8433 5.9375C17.8433 6.3519 18.0104 6.74933 18.3079 7.04235C18.6054 7.33538 19.0088 7.5 19.4295 7.5C19.8502 7.5 20.2536 7.33538 20.5511 7.04235C20.8486 6.74933 21.0157 6.3519 21.0157 5.9375C21.0157 5.5231 20.8486 5.12567 20.5511 4.83265C20.2536 4.53962 19.8502 4.375 19.4295 4.375Z" fill="black"/>
</svg>
